<svg xmlns="http://www.w3.org/2000/svg" xmlns:xlink="http://www.w3.org/1999/xlink" width="103.128" height="95.188" viewBox="0 0 103.128 95.188"><defs><style>.a{fill:url(#a);}</style><linearGradient id="a" x1="0.286" y1="0.339" x2="1" y2="1" gradientUnits="objectBoundingBox"><stop offset="0" stop-color="#dd8c4e"/><stop offset="1" stop-color="#986efb"/></linearGradient></defs><path class="a" d="M74.92,84.918a10.5,10.5,0,0,1,3.151-7.56H40.229a10.5,10.5,0,0,1,3.151,7.56,10.022,10.022,0,0,1-9.752,10.271,10.021,10.021,0,0,1-9.752-10.271A10.357,10.357,0,0,1,29,75.875L16.64,11.8H5.9A5.9,5.9,0,1,1,5.9,0H20.66a5.9,5.9,0,0,1,5.326,3.358l.461-.1,1.61,8.347H97.048a5.938,5.938,0,0,1,4.677,2.323,6.691,6.691,0,0,1,1.3,5.291L96.852,54.133a6.377,6.377,0,0,1-2.216,3.938,5.99,5.99,0,0,1-3.76,1.312v.077H37.287l1.176,6.1H84.155a5.9,5.9,0,0,1,4.332,9.905,10.3,10.3,0,0,1,5.938,9.455,9.765,9.765,0,1,1-19.5,0Z"/></svg>