<svg xmlns="http://www.w3.org/2000/svg" xmlns:xlink="http://www.w3.org/1999/xlink" width="72" height="97.999" viewBox="0 0 72 97.999"><defs><style>.a{fill:url(#a);}</style><linearGradient id="a" y1="0.118" x2="0.912" y2="0.725" gradientUnits="objectBoundingBox"><stop offset="0" stop-color="#dd8c4e"/><stop offset="1" stop-color="#986efb"/></linearGradient></defs><path class="a" d="M21.883,98A13,13,0,0,1,8.925,86.061l-.042.6L4.207,21.329H68.26L63.584,86.658l-.043-.6A13,13,0,0,1,50.584,98ZM48.155,30.694V89.789a1.87,1.87,0,0,0,3.74,0V30.694a1.87,1.87,0,1,0-3.74,0Zm-14.026,0V89.789a1.87,1.87,0,0,0,3.74,0V30.694a1.87,1.87,0,1,0-3.74,0Zm-14.026,0V89.789a1.87,1.87,0,0,0,3.74,0V30.694a1.87,1.87,0,1,0-3.74,0ZM4.9,16.718a4.9,4.9,0,0,1,0-9.8H21.974A6.917,6.917,0,0,1,28.892,0H43.108a6.917,6.917,0,0,1,6.917,6.917H67.1a4.9,4.9,0,0,1,0,9.8Z"/></svg>